<svg width="38" height="38" viewBox="0 0 38 38" fill="none" xmlns="http://www.w3.org/2000/svg">
<mask id="mask0_83_16" style="mask-type:luminance" maskUnits="userSpaceOnUse" x="0" y="0" width="38" height="38">
<path d="M37.4999 37.5V0.500111H0.5V37.5H37.4999Z" fill="white" stroke="white"/>
</mask>
<g mask="url(#mask0_83_16)">
<path d="M12.8418 18.8595L12.8427 18.8604C12.9367 18.9542 12.9375 19.1071 12.8423 19.2024C12.8422 19.2024 12.8422 19.2024 12.8422 19.2024M12.8418 18.8595L12.8422 19.2024M12.8418 18.8595C12.7481 18.7655 12.5951 18.7648 12.4998 18.86L12.4995 18.8604C12.4055 18.9541 12.4047 19.1068 12.4997 19.2021M12.8418 18.8595L12.4997 19.2021M12.8422 19.2024C12.7485 19.2961 12.5951 19.2969 12.4997 19.2021M12.8422 19.2024L12.4997 19.2021M12.1464 19.5559C11.8562 19.2656 11.8562 18.7958 12.1464 18.5064V19.5559Z" fill="#ADD800" stroke="#ADD800"/>
<path d="M16.6077 10.897L20.9888 6.51515C23.0023 4.5016 25.7173 3.18934 28.3528 2.33368C32.9261 0.849306 37.2575 0.742428 37.2575 0.742428C37.2575 0.742428 37.1506 5.07382 35.6662 9.64717C34.8106 12.2827 33.4983 14.9976 31.4848 17.0111L18.9686 29.5273L8.47266 19.0314L16.6077 10.897Z" stroke="#ADD800" stroke-miterlimit="10" stroke-linecap="round" stroke-linejoin="round"/>
<path d="M17.132 27.6902L14.771 31.626L6.37402 23.229L10.3098 20.868" stroke="#ADD800" stroke-miterlimit="10" stroke-linecap="round" stroke-linejoin="round"/>
<path d="M27.1038 21.393L26.3163 28.4779L20.0189 34.7754L19.2314 29.2647" stroke="#ADD800" stroke-miterlimit="10" stroke-linecap="round" stroke-linejoin="round"/>
<path d="M8.73533 18.7686L3.22461 17.9811L9.52205 11.6837L16.607 10.8962" stroke="#ADD800" stroke-miterlimit="10" stroke-linecap="round" stroke-linejoin="round"/>
<path d="M8.47279 29.5272L0.742188 37.2578" stroke="#ADD800" stroke-miterlimit="10" stroke-linecap="round" stroke-linejoin="round"/>
<path d="M10.5725 31.6262L5.99023 36.2085" stroke="#ADD800" stroke-miterlimit="10" stroke-linecap="round" stroke-linejoin="round"/>
<path d="M6.37424 27.4275L1.79199 32.0098" stroke="#ADD800" stroke-miterlimit="10" stroke-linecap="round" stroke-linejoin="round"/>
<path d="M26.7619 16.4861C25.3124 17.9356 22.9626 17.9356 21.5139 16.4861C20.0644 15.0374 20.0644 12.6876 21.5139 11.2381C22.9626 9.78946 25.3124 9.78946 26.7619 11.2381C28.2106 12.6876 28.2106 15.0374 26.7619 16.4861Z" stroke="#ADD800" stroke-miterlimit="10" stroke-linecap="round" stroke-linejoin="round"/>
<path d="M28.3525 2.33348L35.666 9.64697" stroke="#ADD800" stroke-miterlimit="10" stroke-linecap="round" stroke-linejoin="round"/>
<path d="M14.7705 21.1303L21.068 27.4277" stroke="#ADD800" stroke-miterlimit="10" stroke-linecap="round" stroke-linejoin="round"/>
</g>
</svg>
