<svg width="79" height="16" viewBox="0 0 79 16" fill="none" xmlns="http://www.w3.org/2000/svg">
<path d="M15.2704 14.3742H12.5473L7.64232 5.86923V14.3742H5.09668V1.4546H7.81972L12.7247 9.96853V1.4546H15.2704V14.3742Z" fill="black"/>
<path d="M27.7946 13.0498C27.2032 13.5663 26.541 13.9627 25.8077 14.239C25.0745 14.5153 24.3146 14.6534 23.5282 14.6534C22.925 14.6534 22.3426 14.5724 21.7808 14.4102C21.225 14.254 20.7017 14.0318 20.2109 13.7435C19.726 13.4492 19.2825 13.0978 18.8804 12.6894C18.4783 12.281 18.1324 11.8305 17.8426 11.338C17.5588 10.8394 17.337 10.3079 17.1774 9.7433C17.0236 9.1727 16.9468 8.58108 16.9468 7.96843C16.9468 7.35579 17.0236 6.76417 17.1774 6.19357C17.337 5.62297 17.5588 5.09142 17.8426 4.5989C18.1324 4.10038 18.4783 3.6469 18.8804 3.23847C19.2825 2.83005 19.726 2.48168 20.2109 2.19338C20.7017 1.89907 21.225 1.67383 21.7808 1.51767C22.3426 1.3555 22.925 1.27441 23.5282 1.27441C24.3146 1.27441 25.0745 1.41256 25.8077 1.68885C26.541 1.95913 27.2032 2.35555 27.7946 2.8781L26.4463 5.13046C26.0738 4.72203 25.6333 4.4097 25.1247 4.19348C24.6162 3.97124 24.084 3.86013 23.5282 3.86013C22.9664 3.86013 22.4401 3.96824 21.9493 4.18447C21.4585 4.40069 21.0298 4.695 20.6632 5.06739C20.2966 5.43378 20.0069 5.86923 19.794 6.37376C19.5811 6.87228 19.4747 7.40384 19.4747 7.96843C19.4747 8.53303 19.5811 9.06458 19.794 9.56311C20.0069 10.0556 20.2966 10.4881 20.6632 10.8605C21.0298 11.2329 21.4585 11.5272 21.9493 11.7434C22.4401 11.9596 22.9664 12.0677 23.5282 12.0677C24.084 12.0677 24.6162 11.9596 25.1247 11.7434C25.6333 11.5212 26.0738 11.2058 26.4463 10.7974L27.7946 13.0498Z" fill="black"/>
<path d="M31.8215 4.04031V9.21174H34.3671C34.716 9.21174 35.0442 9.14567 35.3516 9.01353C35.6591 8.87539 35.9282 8.68919 36.1588 8.45494C36.3894 8.2207 36.5698 7.94741 36.6999 7.63509C36.8359 7.31675 36.9039 6.9804 36.9039 6.62603C36.9039 6.27166 36.8359 5.93831 36.6999 5.62598C36.5698 5.30764 36.3894 5.03135 36.1588 4.79711C35.9282 4.56286 35.6591 4.37967 35.3516 4.24753C35.0442 4.10939 34.716 4.04031 34.3671 4.04031H31.8215ZM31.8215 14.3742H29.2758V1.4546H34.3671C34.8342 1.4546 35.2836 1.51767 35.7153 1.6438C36.147 1.76393 36.5491 1.93811 36.9216 2.16635C37.3001 2.38858 37.643 2.65887 37.9505 2.9772C38.2639 3.28953 38.53 3.63789 38.7488 4.0223C38.9735 4.4067 39.145 4.81813 39.2632 5.25659C39.3874 5.69505 39.4495 6.15153 39.4495 6.62603C39.4495 7.07049 39.3933 7.50295 39.281 7.92339C39.1745 8.34383 39.0178 8.74325 38.8109 9.12164C38.6098 9.50004 38.3615 9.84841 38.0658 10.1667C37.7702 10.4851 37.439 10.7614 37.0724 10.9956L38.4827 14.3742H35.7774L34.6687 11.7704L31.8215 11.7884V14.3742Z" fill="black"/>
<path d="M65.9628 14.3742H63.2397L58.3347 5.86923V14.3742H55.7891V1.4546H58.5121L63.4171 9.96853V1.4546H65.9628V14.3742Z" fill="black"/>
<path d="M75.8172 9.21174V6.62603C75.8172 6.27166 75.7492 5.93831 75.6132 5.62598C75.4831 5.30764 75.3027 5.03135 75.0721 4.79711C74.8415 4.56286 74.5695 4.37967 74.2561 4.24753C73.9486 4.10939 73.6204 4.04031 73.2715 4.04031C72.9226 4.04031 72.5915 4.10939 72.2781 4.24753C71.9706 4.37967 71.7016 4.56286 71.4709 4.79711C71.2403 5.03135 71.057 5.30764 70.921 5.62598C70.7909 5.93831 70.7259 6.27166 70.7259 6.62603V9.21174H75.8172ZM78.3628 14.3742H75.8172V11.7884H70.7259V14.3742H68.1891V6.62603C68.1891 5.91128 68.3222 5.24157 68.5883 4.61692C68.8544 3.98626 69.2151 3.43668 69.6704 2.96819C70.1316 2.4997 70.6697 2.13031 71.2847 1.86003C71.9056 1.58974 72.5678 1.4546 73.2715 1.4546C73.9752 1.4546 74.6345 1.58974 75.2495 1.86003C75.8704 2.13031 76.4114 2.4997 76.8727 2.96819C77.3339 3.43668 77.6976 3.98626 77.9637 4.61692C78.2298 5.24157 78.3628 5.91128 78.3628 6.62603V14.3742Z" fill="black"/>
<path d="M2.54839 14.0163H0V3.24526C0 2.63231 0.231673 2.15069 0.695014 1.80043C1.15836 1.43765 1.77615 1.26252 2.54839 1.27503V14.0163Z" fill="black"/>
<path d="M47.4919 1.27441C49.3227 1.27441 50.8876 1.92899 52.1866 3.23814C53.498 4.53505 54.1534 6.12562 54.1534 8.00982C54.1534 9.88177 53.5103 11.454 52.2237 12.7264C50.9248 14.0111 49.3537 14.6534 47.5104 14.6534C45.5682 14.6534 43.96 13.9928 42.6859 12.6714C41.4116 11.3622 40.7744 9.79001 40.7744 7.95476C40.7744 6.91478 40.9415 6.07054 41.2755 5.42209C41.6591 4.65129 42.3023 4.168 43.2053 3.97224C44.1085 3.76424 44.8877 3.89884 45.5434 4.37599C46.1991 4.85317 46.4031 5.55668 46.1558 6.48654C45.8342 6.10727 45.4384 5.91149 44.9682 5.89927C44.5104 5.88703 44.1023 6.09503 43.7434 6.52324C43.3971 6.95148 43.2363 7.53877 43.2611 8.28511C43.3106 9.55755 43.8177 10.5792 44.7827 11.35C45.5744 11.9984 46.4837 12.3227 47.5104 12.3227C48.661 12.3227 49.6445 11.9067 50.4609 11.0747C51.2774 10.2305 51.6855 9.20272 51.6855 7.99146C51.6855 6.78018 51.2774 5.75244 50.4609 4.90823C49.6197 4.07624 48.6177 3.66025 47.4547 3.66025C46.9105 3.66025 46.4156 3.73978 45.9703 3.89884C45.5249 3.49508 44.9373 3.28096 44.2073 3.25649C43.4899 3.23202 42.8342 3.4033 42.2405 3.77038C42.7599 3.13414 43.3848 2.60192 44.1145 2.17369C45.1661 1.57417 46.2919 1.27441 47.4919 1.27441Z" fill="black"/>
</svg>
