<svg width="38" height="38" viewBox="0 0 38 38" fill="none" xmlns="http://www.w3.org/2000/svg">
<path d="M38 19C38 8.50659 29.4934 0 19 0C8.50659 0 0 8.50659 0 19C0 29.4934 8.50659 38 19 38C29.4934 38 38 29.4934 38 19Z" fill="#1275B1"/>
<path d="M14.411 10.4394C14.411 11.7077 13.3115 12.7359 11.9555 12.7359C10.5993 12.7359 9.5 11.7077 9.5 10.4394C9.5 9.17105 10.5993 8.14288 11.9555 8.14288C13.3115 8.14288 14.411 9.17105 14.411 10.4394Z" fill="white"/>
<path d="M9.83594 14.4238H14.0333V27.1428H9.83594V14.4238Z" fill="white"/>
<path d="M20.7911 14.4237H16.5938V27.1427H20.7911C20.7911 27.1427 20.7911 23.1386 20.7911 20.6351C20.7911 19.1323 21.3043 17.6231 23.3515 17.6231C25.6652 17.6231 25.6513 19.5896 25.6405 21.1131C25.6263 23.1044 25.66 25.1367 25.66 27.1427H29.8574V20.4299C29.8218 16.1436 28.7049 14.1686 25.0304 14.1686C22.8483 14.1686 21.4956 15.1593 20.7911 16.0556V14.4237Z" fill="white"/>
</svg>
