<svg width="133" height="54" viewBox="0 0 133 54" fill="none" xmlns="http://www.w3.org/2000/svg">
<path d="M18 0L22.0413 12.4377H35.119L24.5389 20.1246L28.5801 32.5623L18 24.8754L7.41987 32.5623L11.4611 20.1246L0.880983 12.4377H13.9587L18 0Z" fill="#CCFF00"/>
<path d="M16.6345 26.4459L28.6459 9.12994H17.2442V7.11787H31.2067V9.12994L19.1953 26.4459H31.8165V28.458H16.6345V26.4459ZM46.7279 28.458H44.8682C44.6548 27.6959 44.5024 26.9337 44.411 26.1716C43.3744 27.6654 41.8501 28.7324 39.6552 28.7324C36.4846 28.7324 34.2591 26.8118 34.2591 24.068C34.2591 21.3243 36.5151 19.8915 40.4478 19.4342L44.411 18.9769V18.0623C44.411 16.1722 43.0086 14.8918 40.9965 14.8918C39.0759 14.8918 37.6736 15.6539 37.1553 17.1782L35.0518 16.8124C35.8139 14.3735 38.0394 12.9102 40.9965 12.9102C44.3805 12.9102 46.5755 15.1357 46.5755 18.5196V24.19C46.5755 26.2325 46.6059 27.3605 46.7279 28.458ZM39.8381 26.8118C42.6733 26.8118 44.411 24.9521 44.411 22.3303V20.6841L40.4173 21.1719C37.9479 21.4767 36.4236 22.3913 36.4236 24.068C36.4236 25.6533 37.826 26.8118 39.8381 26.8118ZM62.1814 19.3427V28.458H60.0169V18.5196C60.0169 16.0198 58.4011 14.8613 56.6634 14.8613C54.6209 14.8613 52.3954 16.4466 52.3954 19.3427V28.458H50.2309V17.4831C50.2309 15.4405 50.2004 14.3125 50.0785 13.215H51.9381C52.1515 13.9772 52.3039 14.7393 52.3954 15.5015C53.7673 13.7638 55.5964 12.9102 57.2732 12.9102C59.1938 12.9102 60.962 13.9772 61.7546 16.0198C63.0655 13.9467 65.0166 12.9102 66.9982 12.9102C69.6809 12.9102 71.9674 14.8918 71.9674 18.5196V28.458H69.8029V18.5196C69.8029 16.0198 68.1871 14.8613 66.4494 14.8613C64.4069 14.8613 62.1814 16.4466 62.1814 19.3427ZM87.4275 19.3427V28.458H85.263V18.5196C85.263 16.0198 83.6473 14.8613 81.9096 14.8613C79.867 14.8613 77.6416 16.4466 77.6416 19.3427V28.458H75.4771V17.4831C75.4771 15.4405 75.4466 14.3125 75.3246 13.215H77.1843C77.3977 13.9772 77.5501 14.7393 77.6416 15.5015C79.0134 13.7638 80.8426 12.9102 82.5193 12.9102C84.4399 12.9102 86.2081 13.9772 87.0007 16.0198C88.3116 13.9467 90.2627 12.9102 92.2443 12.9102C94.9271 12.9102 97.2135 14.8918 97.2135 18.5196V28.458H95.049V18.5196C95.049 16.0198 93.4333 14.8613 91.6956 14.8613C89.653 14.8613 87.4275 16.4466 87.4275 19.3427ZM114.503 20.806C114.503 25.4399 111.546 28.7019 107.308 28.7019C103.071 28.7019 100.113 25.4399 100.113 20.806C100.113 16.1722 103.071 12.9102 107.308 12.9102C111.546 12.9102 114.503 16.1722 114.503 20.806ZM102.278 20.806C102.278 24.4644 104.26 26.7813 107.308 26.7813C110.357 26.7813 112.338 24.4644 112.338 20.806C112.338 17.1782 110.357 14.8918 107.308 14.8918C104.26 14.8918 102.278 17.1782 102.278 20.806ZM130.104 28.458H128.245C128.031 27.6959 127.879 26.9337 127.787 26.1716C126.598 27.6654 124.83 28.7324 122.788 28.7324C119.526 28.7324 117.392 26.5069 117.392 23.1535V13.215H119.556V23.1535C119.556 25.2875 120.958 26.7813 122.971 26.7813C125.806 26.7813 127.787 24.9521 127.787 22.3303V13.215H129.952V24.19C129.952 26.2325 129.982 27.3605 130.104 28.458Z" fill="#1E1010"/>
<path d="M15.8569 40.6229C15.8569 37.3667 17.9349 35.0745 20.9126 35.0745C23.2263 35.0745 24.9615 36.467 25.5613 38.5878L24.0832 38.8449C23.6547 37.3453 22.4979 36.467 20.9126 36.467C18.7704 36.467 17.3779 38.0737 17.3779 40.6229C17.3779 43.1722 18.7704 44.7789 20.9126 44.7789C22.4979 44.7789 23.6333 43.9434 24.0832 42.4867L25.5613 42.7438C24.9615 44.8218 23.2263 46.1714 20.9126 46.1714C17.9349 46.1714 15.8569 43.8792 15.8569 40.6229ZM37.2445 40.6229C37.2445 43.8792 35.1665 46.1714 32.1887 46.1714C29.211 46.1714 27.133 43.8792 27.133 40.6229C27.133 37.3667 29.211 35.0745 32.1887 35.0745C35.1665 35.0745 37.2445 37.3667 37.2445 40.6229ZM28.654 40.6229C28.654 43.1936 30.0465 44.8218 32.1887 44.8218C34.331 44.8218 35.7235 43.1936 35.7235 40.6229C35.7235 38.0737 34.331 36.467 32.1887 36.467C30.0465 36.467 28.654 38.0737 28.654 40.6229ZM39.2744 35.2887H40.5812C40.7311 35.8243 40.8383 36.3599 40.9025 36.8954C41.738 35.8457 42.9805 35.0959 44.4158 35.0959C46.708 35.0959 48.2076 36.6598 48.2076 39.0163V46H46.6866V39.0163C46.6866 37.5167 45.7012 36.467 44.2873 36.467C42.295 36.467 40.9025 37.7523 40.9025 39.5947V46H39.3815V38.2879C39.3815 36.8526 39.3601 36.0599 39.2744 35.2887ZM54.4489 35.0745C56.5269 35.0745 58.0908 36.2099 58.6263 37.9237L57.1482 38.1808C56.784 37.1096 55.7985 36.467 54.4489 36.467C53.0993 36.467 52.1567 37.1096 52.1567 38.0094C52.1567 39.2091 53.5063 39.4875 55.0059 39.8732C56.8268 40.3445 58.862 40.9229 58.862 43.1294C58.862 44.7361 57.341 46.2142 54.8774 46.2142C52.5209 46.2142 50.7214 44.9075 50.143 42.9152L51.6212 42.6581C52.0282 44.0291 53.2493 44.8218 54.8774 44.8218C56.3341 44.8218 57.3624 44.0505 57.3624 43.1294C57.3624 41.8655 55.9914 41.5227 54.4704 41.1585C52.6709 40.7086 50.6571 40.2159 50.6571 38.0094C50.6571 36.2956 52.221 35.0745 54.4489 35.0745ZM69.8393 46H68.5326C68.3826 45.4644 68.2755 44.9289 68.2112 44.3933C67.3758 45.443 66.1332 46.1928 64.6979 46.1928C62.4057 46.1928 60.9061 44.629 60.9061 42.2725V35.2887H62.4271V42.2725C62.4271 43.7721 63.4126 44.8218 64.8265 44.8218C66.8188 44.8218 68.2112 43.5364 68.2112 41.6941V35.2887H69.7322V43.0008C69.7322 44.4362 69.7537 45.2288 69.8393 46ZM72.3103 46V31.0042H73.8313V46H72.3103ZM77.4604 43.1722V36.5527H75.768V35.503L77.4604 35.2887L77.8889 32.5252H78.9814V35.2887H81.3807V36.5527H78.9814V43.0865C78.9814 44.0077 79.2171 44.886 80.5238 44.886C80.8666 44.886 81.295 44.8432 81.8092 44.7146V46.0643C81.295 46.1714 80.8238 46.2142 80.3953 46.2142C78.2316 46.2142 77.4604 44.7146 77.4604 43.1722ZM83.7329 46V35.2887H85.2539V46H83.7329ZM83.5829 32.8466V30.8328H85.4038V32.8466H83.5829ZM87.7262 35.2887H89.0329C89.1829 35.8243 89.29 36.3599 89.3543 36.8954C90.1898 35.8457 91.4323 35.0959 92.8676 35.0959C95.1598 35.0959 96.6594 36.6598 96.6594 39.0163V46H95.1384V39.0163C95.1384 37.5167 94.1529 36.467 92.739 36.467C90.7467 36.467 89.3543 37.7523 89.3543 39.5947V46H87.8333V38.2879C87.8333 36.8526 87.8118 36.0599 87.7262 35.2887ZM106.928 45.9572V44.5218C106.071 45.6144 104.807 46.2142 103.393 46.2142C100.63 46.2142 98.7019 43.922 98.7019 40.6658C98.7019 37.3881 100.63 35.0745 103.393 35.0745C104.85 35.0745 106.093 35.8457 106.928 36.8954C106.992 36.4241 107.121 35.76 107.249 35.2887H108.556C108.471 36.0599 108.449 36.8526 108.449 38.2879V45.9357C108.449 48.8278 106.8 50.6915 103.865 50.6915C101.401 50.6915 99.5802 49.3848 98.9375 47.3925L100.416 47.1354C100.908 48.5064 102.129 49.2991 103.865 49.2991C105.857 49.2991 106.928 47.9923 106.928 45.9572ZM100.223 40.6658C100.223 43.2151 101.53 44.8218 103.693 44.8218C105.771 44.8218 106.928 43.0223 106.928 41.0514V40.3445C106.928 38.2665 105.686 36.4241 103.693 36.4241C101.53 36.4241 100.223 38.0737 100.223 40.6658Z" fill="#1E1010"/>
</svg>
