<svg width="340" height="126" viewBox="0 0 340 126" fill="none" xmlns="http://www.w3.org/2000/svg">
<g clip-path="url(#clip0_1_2)">
<path d="M5.166 3.56H46.956L16.884 51.104H45.15V59H1.26L31.374 11.456H5.166V3.56ZM71.9513 3.56H80.9813L101.897 59H92.4893L87.9113 46.316H65.0633L60.4433 59H50.9933L71.9513 3.56ZM67.9193 38.462H85.0553L76.5293 14.312H76.4033L67.9193 38.462ZM160.317 3.56V59H151.497V21.242L151.917 14.144L150.237 22.124L138.099 55.472H129.405L117.309 22.124L115.629 14.144L116.049 21.242V59H107.229V3.56H119.283L133.143 45.056L133.773 48.374L134.361 45.056L148.305 3.56H160.317ZM224.466 3.56V59H215.646V21.242L216.066 14.144L214.386 22.124L202.248 55.472H193.554L181.458 22.124L179.778 14.144L180.198 21.242V59H171.378V3.56H183.432L197.292 45.056L197.922 48.374L198.51 45.056L212.454 3.56H224.466ZM242.414 31.238C242.414 35.046 243.212 38.504 244.808 41.612C246.404 44.692 248.602 47.142 251.402 48.962C254.202 50.754 257.422 51.65 261.062 51.65C264.758 51.65 267.992 50.754 270.764 48.962C273.564 47.142 275.748 44.692 277.316 41.612C278.912 38.504 279.71 35.046 279.71 31.238C279.71 27.43 278.912 23.986 277.316 20.906C275.748 17.826 273.564 15.39 270.764 13.598C267.992 11.806 264.758 10.91 261.062 10.91C257.422 10.91 254.202 11.806 251.402 13.598C248.602 15.39 246.404 17.826 244.808 20.906C243.212 23.986 242.414 27.43 242.414 31.238ZM233.216 31.238C233.216 27.206 233.916 23.454 235.316 19.982C236.744 16.482 238.704 13.43 241.196 10.826C243.716 8.222 246.67 6.192 250.058 4.736C253.446 3.28 257.114 2.552 261.062 2.552C265.066 2.552 268.748 3.28 272.108 4.736C275.496 6.192 278.45 8.222 280.97 10.826C283.49 13.43 285.436 16.482 286.808 19.982C288.18 23.454 288.866 27.206 288.866 31.238C288.866 35.298 288.18 39.078 286.808 42.578C285.464 46.05 283.546 49.102 281.054 51.734C278.562 54.338 275.622 56.368 272.234 57.824C268.846 59.28 265.122 60.008 261.062 60.008C256.974 60.008 253.222 59.28 249.806 57.824C246.418 56.368 243.478 54.338 240.986 51.734C238.522 49.102 236.604 46.05 235.232 42.578C233.888 39.078 233.216 35.298 233.216 31.238ZM330.741 3.56H339.561V37.874C339.561 42.438 338.651 46.386 336.831 49.718C335.039 53.022 332.533 55.57 329.313 57.362C326.093 59.126 322.341 60.008 318.057 60.008C313.801 60.008 310.049 59.126 306.801 57.362C303.553 55.57 301.019 53.022 299.199 49.718C297.379 46.386 296.469 42.438 296.469 37.874V3.56H305.289V37.412C305.289 40.436 305.835 43.026 306.927 45.182C308.047 47.338 309.559 48.99 311.463 50.138C313.395 51.286 315.593 51.86 318.057 51.86C320.521 51.86 322.705 51.286 324.609 50.138C326.513 48.99 328.011 47.338 329.103 45.182C330.195 43.026 330.741 40.436 330.741 37.412V3.56Z" fill="white"/>
<path d="M60.8 105.48C63.08 105.48 65.07 105.17 66.77 104.55C68.49 103.91 69.74 103.28 70.52 102.66L73.22 108.06C72.32 108.86 70.75 109.67 68.51 110.49C66.27 111.31 63.59 111.72 60.47 111.72C57.55 111.72 54.83 111.2 52.31 110.16C49.79 109.12 47.58 107.68 45.68 105.84C43.78 103.98 42.3 101.81 41.24 99.33C40.18 96.85 39.65 94.16 39.65 91.26C39.65 88.36 40.18 85.66 41.24 83.16C42.3 80.66 43.77 78.48 45.65 76.62C47.55 74.76 49.76 73.31 52.28 72.27C54.82 71.21 57.55 70.68 60.47 70.68C63.59 70.68 66.27 71.09 68.51 71.91C70.75 72.73 72.32 73.54 73.22 74.34L70.52 79.74C69.74 79.12 68.49 78.5 66.77 77.88C65.07 77.24 63.08 76.92 60.8 76.92C58.64 76.92 56.68 77.28 54.92 78C53.16 78.72 51.65 79.73 50.39 81.03C49.13 82.33 48.16 83.85 47.48 85.59C46.8 87.31 46.46 89.17 46.46 91.17C46.46 93.19 46.8 95.07 47.48 96.81C48.16 98.55 49.13 100.07 50.39 101.37C51.65 102.67 53.16 103.68 54.92 104.4C56.68 105.12 58.64 105.48 60.8 105.48ZM90.8445 111.72C88.2645 111.72 85.9645 111.16 83.9445 110.04C81.9445 108.9 80.3745 107.36 79.2345 105.42C78.0945 103.46 77.5245 101.24 77.5245 98.76C77.5245 96.28 78.0945 94.05 79.2345 92.07C80.3745 90.09 81.9445 88.53 83.9445 87.39C85.9645 86.23 88.2645 85.65 90.8445 85.65C93.4245 85.65 95.7045 86.23 97.6845 87.39C99.6645 88.53 101.215 90.09 102.335 92.07C103.475 94.05 104.045 96.28 104.045 98.76C104.045 101.24 103.475 103.46 102.335 105.42C101.215 107.36 99.6645 108.9 97.6845 110.04C95.7045 111.16 93.4245 111.72 90.8445 111.72ZM90.8445 106.32C92.2845 106.32 93.5345 105.99 94.5945 105.33C95.6545 104.67 96.4745 103.77 97.0545 102.63C97.6345 101.49 97.9245 100.19 97.9245 98.73C97.9245 97.27 97.6345 95.97 97.0545 94.83C96.4745 93.67 95.6545 92.75 94.5945 92.07C93.5345 91.39 92.2845 91.05 90.8445 91.05C89.4045 91.05 88.1445 91.39 87.0645 92.07C86.0045 92.75 85.1745 93.67 84.5745 94.83C83.9945 95.97 83.7045 97.27 83.7045 98.73C83.7045 100.19 83.9945 101.49 84.5745 102.63C85.1745 103.77 86.0045 104.67 87.0645 105.33C88.1445 105.99 89.4045 106.32 90.8445 106.32ZM124.196 85.65C125.856 85.65 127.466 85.99 129.026 86.67C130.586 87.35 131.866 88.44 132.866 89.94C133.886 91.42 134.396 93.35 134.396 95.73V111H127.946V96.9C127.946 94.68 127.416 93.05 126.356 92.01C125.316 90.95 123.966 90.42 122.306 90.42C121.206 90.42 120.156 90.73 119.156 91.35C118.156 91.97 117.336 92.81 116.696 93.87C116.076 94.93 115.766 96.15 115.766 97.53V111H109.346V86.37H115.766V90.51C115.946 89.83 116.426 89.12 117.206 88.38C118.006 87.62 119.016 86.98 120.236 86.46C121.456 85.92 122.776 85.65 124.196 85.65ZM150.594 85.65C151.974 85.65 153.254 85.78 154.434 86.04C155.614 86.3 156.624 86.61 157.464 86.97C158.304 87.33 158.884 87.63 159.204 87.87L156.864 91.83C156.464 91.49 155.744 91.1 154.704 90.66C153.684 90.22 152.534 90 151.254 90C149.974 90 148.894 90.23 148.014 90.69C147.134 91.15 146.694 91.84 146.694 92.76C146.694 93.66 147.154 94.38 148.074 94.92C149.014 95.46 150.284 95.91 151.884 96.27C153.204 96.57 154.464 96.99 155.664 97.53C156.864 98.05 157.844 98.8 158.604 99.78C159.384 100.74 159.774 102.03 159.774 103.65C159.774 105.19 159.444 106.48 158.784 107.52C158.144 108.54 157.284 109.36 156.204 109.98C155.124 110.6 153.924 111.04 152.604 111.3C151.304 111.58 149.994 111.72 148.674 111.72C147.054 111.72 145.604 111.56 144.324 111.24C143.064 110.92 142.014 110.55 141.174 110.13C140.334 109.69 139.734 109.32 139.374 109.02L141.714 104.58C142.234 105.08 143.084 105.61 144.264 106.17C145.444 106.71 146.764 106.98 148.224 106.98C149.784 106.98 151.034 106.68 151.974 106.08C152.914 105.48 153.384 104.68 153.384 103.68C153.384 102.94 153.154 102.34 152.694 101.88C152.254 101.42 151.644 101.05 150.864 100.77C150.084 100.49 149.214 100.24 148.254 100.02C147.354 99.8 146.444 99.52 145.524 99.18C144.624 98.82 143.794 98.36 143.034 97.8C142.274 97.22 141.664 96.5 141.204 95.64C140.744 94.78 140.514 93.77 140.514 92.61C140.514 91.13 140.984 89.87 141.924 88.83C142.864 87.79 144.104 87 145.644 86.46C147.184 85.92 148.834 85.65 150.594 85.65ZM171.512 98.46C171.512 100.86 172.002 102.77 172.982 104.19C173.982 105.61 175.552 106.32 177.692 106.32C179.852 106.32 181.422 105.61 182.402 104.19C183.382 102.77 183.872 100.86 183.872 98.46V86.37H190.232V99.27C190.232 101.75 189.742 103.93 188.762 105.81C187.782 107.67 186.362 109.12 184.502 110.16C182.642 111.2 180.372 111.72 177.692 111.72C175.032 111.72 172.772 111.2 170.912 110.16C169.052 109.12 167.632 107.67 166.652 105.81C165.672 103.93 165.182 101.75 165.182 99.27V86.37H171.512V98.46ZM203.428 111H196.978V69.72H203.428V111ZM208.323 86.37H212.943V76.26H219.303V86.37H225.393V91.77H219.303V102.3C219.303 103.62 219.523 104.61 219.963 105.27C220.423 105.93 221.073 106.26 221.913 106.26C222.613 106.26 223.163 106.13 223.563 105.87C223.983 105.61 224.233 105.43 224.313 105.33L226.683 109.98C226.563 110.1 226.213 110.3 225.633 110.58C225.053 110.86 224.303 111.12 223.383 111.36C222.463 111.6 221.413 111.72 220.233 111.72C218.153 111.72 216.413 111.1 215.013 109.86C213.633 108.62 212.943 106.68 212.943 104.04V91.77H208.323V86.37ZM231.352 111V86.37H237.742V111H231.352ZM234.622 78.99C233.542 78.99 232.612 78.6 231.832 77.82C231.072 77.04 230.692 76.11 230.692 75.03C230.692 73.95 231.072 73.02 231.832 72.24C232.612 71.44 233.542 71.04 234.622 71.04C235.342 71.04 236.002 71.23 236.602 71.61C237.222 71.97 237.712 72.45 238.072 73.05C238.452 73.63 238.642 74.29 238.642 75.03C238.642 76.11 238.252 77.04 237.472 77.82C236.692 78.6 235.742 78.99 234.622 78.99ZM259.958 85.65C261.618 85.65 263.228 85.99 264.788 86.67C266.348 87.35 267.628 88.44 268.628 89.94C269.648 91.42 270.158 93.35 270.158 95.73V111H263.708V96.9C263.708 94.68 263.178 93.05 262.118 92.01C261.078 90.95 259.728 90.42 258.068 90.42C256.968 90.42 255.918 90.73 254.918 91.35C253.918 91.97 253.098 92.81 252.458 93.87C251.838 94.93 251.528 96.15 251.528 97.53V111H245.108V86.37H251.528V90.51C251.708 89.83 252.188 89.12 252.968 88.38C253.768 87.62 254.778 86.98 255.998 86.46C257.218 85.92 258.538 85.65 259.958 85.65ZM288.695 124.17C286.815 124.17 285.065 123.98 283.445 123.6C281.845 123.24 280.415 122.69 279.155 121.95C277.895 121.23 276.875 120.34 276.095 119.28L280.085 115.32C280.505 115.84 281.045 116.38 281.705 116.94C282.365 117.52 283.235 118 284.315 118.38C285.395 118.78 286.765 118.98 288.425 118.98C290.045 118.98 291.425 118.65 292.565 117.99C293.725 117.33 294.605 116.42 295.205 115.26C295.825 114.12 296.135 112.8 296.135 111.3V110.55H302.435V111.69C302.435 114.41 301.825 116.69 300.605 118.53C299.385 120.39 297.735 121.79 295.655 122.73C293.575 123.69 291.255 124.17 288.695 124.17ZM296.135 111V106.44C295.975 106.92 295.515 107.58 294.755 108.42C294.015 109.26 292.995 110.02 291.695 110.7C290.415 111.38 288.895 111.72 287.135 111.72C284.835 111.72 282.765 111.17 280.925 110.07C279.085 108.97 277.635 107.44 276.575 105.48C275.515 103.52 274.985 101.26 274.985 98.7C274.985 96.14 275.515 93.88 276.575 91.92C277.635 89.96 279.085 88.43 280.925 87.33C282.765 86.21 284.835 85.65 287.135 85.65C288.855 85.65 290.345 85.95 291.605 86.55C292.865 87.15 293.875 87.84 294.635 88.62C295.415 89.4 295.895 90.08 296.075 90.66V86.37H302.435V111H296.135ZM281.315 98.7C281.315 100.28 281.665 101.66 282.365 102.84C283.065 104.02 283.975 104.93 285.095 105.57C286.235 106.21 287.455 106.53 288.755 106.53C290.155 106.53 291.395 106.2 292.475 105.54C293.575 104.88 294.435 103.97 295.055 102.81C295.695 101.63 296.015 100.26 296.015 98.7C296.015 97.14 295.695 95.78 295.055 94.62C294.435 93.44 293.575 92.52 292.475 91.86C291.395 91.18 290.155 90.84 288.755 90.84C287.455 90.84 286.235 91.17 285.095 91.83C283.975 92.47 283.065 93.38 282.365 94.56C281.665 95.74 281.315 97.12 281.315 98.7Z" fill="white"/>
</g>
<defs>
<clipPath id="clip0_1_2">
<rect width="340" height="126" fill="white"/>
</clipPath>
</defs>
</svg>
