<svg width="94" height="39" viewBox="0 0 94 39" fill="none" xmlns="http://www.w3.org/2000/svg">
<path d="M12.778 0L15.6468 8.82938H24.9306L17.4199 14.2862L20.2887 23.1156L12.778 17.6588L5.26728 23.1156L8.13612 14.2862L0.6254 8.82938H9.90916L12.778 0Z" fill="#CCFF00"/>
<path d="M11.809 18.3168L20.3358 6.02433H12.2419V4.59598H22.1537V6.02433L13.6269 18.3168H22.5866V19.7451H11.809V18.3168ZM33.172 19.7451H31.8519C31.7004 19.2041 31.5922 18.663 31.5272 18.122C30.7914 19.1824 29.7094 19.9399 28.1512 19.9399C25.9004 19.9399 24.3206 18.5765 24.3206 16.6287C24.3206 14.681 25.9221 13.6638 28.7138 13.3392L31.5272 13.0146V12.3653C31.5272 11.0235 30.5317 10.1146 29.1034 10.1146C27.74 10.1146 26.7444 10.6556 26.3765 11.7377L24.8833 11.478C25.4243 9.74669 27.0041 8.70789 29.1034 8.70789C31.5056 8.70789 33.0638 10.2877 33.0638 12.6899V16.7153C33.0638 18.1653 33.0854 18.966 33.172 19.7451ZM28.281 18.5765C30.2937 18.5765 31.5272 17.2563 31.5272 15.3952V14.2265L28.6922 14.5728C26.9392 14.7892 25.8571 15.4384 25.8571 16.6287C25.8571 17.7541 26.8527 18.5765 28.281 18.5765ZM44.1423 13.2743V19.7451H42.6057V12.6899C42.6057 10.9153 41.4587 10.093 40.2252 10.093C38.7752 10.093 37.1953 11.2183 37.1953 13.2743V19.7451H35.6588V11.9541C35.6588 10.5041 35.6371 9.7034 35.5506 8.92431H36.8707C37.0222 9.46535 37.1304 10.0064 37.1953 10.5474C38.1692 9.31385 39.4677 8.70789 40.658 8.70789C42.0214 8.70789 43.2766 9.46535 43.8393 10.9153C44.7699 9.4437 46.155 8.70789 47.5617 8.70789C49.4661 8.70789 51.0892 10.1146 51.0892 12.6899V19.7451H49.5527V12.6899C49.5527 10.9153 48.4057 10.093 47.1721 10.093C45.7221 10.093 44.1423 11.2183 44.1423 13.2743ZM62.0643 13.2743V19.7451H60.5277V12.6899C60.5277 10.9153 59.3807 10.093 58.1471 10.093C56.6971 10.093 55.1173 11.2183 55.1173 13.2743V19.7451H53.5807V11.9541C53.5807 10.5041 53.5591 9.7034 53.4725 8.92431H54.7927C54.9442 9.46535 55.0524 10.0064 55.1173 10.5474C56.0912 9.31385 57.3897 8.70789 58.58 8.70789C59.9434 8.70789 61.1986 9.46535 61.7613 10.9153C62.6919 9.4437 64.0769 8.70789 65.4836 8.70789C67.3881 8.70789 69.0112 10.1146 69.0112 12.6899V19.7451H67.4747V12.6899C67.4747 10.9153 66.3277 10.093 65.0941 10.093C63.6441 10.093 62.0643 11.2183 62.0643 13.2743ZM81.2847 14.3131C81.2847 17.6026 79.1855 19.9183 76.1773 19.9183C73.1691 19.9183 71.0699 17.6026 71.0699 14.3131C71.0699 11.0235 73.1691 8.70789 76.1773 8.70789C79.1855 8.70789 81.2847 11.0235 81.2847 14.3131ZM72.6064 14.3131C72.6064 16.9101 74.0131 18.5548 76.1773 18.5548C78.3415 18.5548 79.7482 16.9101 79.7482 14.3131C79.7482 11.7377 78.3415 10.1146 76.1773 10.1146C74.0131 10.1146 72.6064 11.7377 72.6064 14.3131ZM92.36 19.7451H91.0398C90.8884 19.2041 90.7801 18.663 90.7152 18.122C89.8712 19.1824 88.616 19.9399 87.166 19.9399C84.8503 19.9399 83.3354 18.3601 83.3354 15.9795V8.92431H84.872V15.9795C84.872 17.4944 85.8675 18.5548 87.2958 18.5548C89.3085 18.5548 90.7152 17.2563 90.7152 15.3952V8.92431H92.2518V16.7153C92.2518 18.1653 92.2734 18.966 92.36 19.7451Z" fill="white"/>
<path d="M11.2567 29.0598C11.2567 26.7483 12.7319 25.1211 14.8457 25.1211C16.4882 25.1211 17.72 26.1096 18.1458 27.6151L17.0965 27.7976C16.7923 26.7331 15.9711 26.1096 14.8457 26.1096C13.325 26.1096 12.3365 27.2501 12.3365 29.0598C12.3365 30.8695 13.325 32.0101 14.8457 32.0101C15.9711 32.0101 16.7771 31.417 17.0965 30.3829L18.1458 30.5654C17.72 32.0405 16.4882 32.9986 14.8457 32.9986C12.7319 32.9986 11.2567 31.3714 11.2567 29.0598ZM26.4395 29.0598C26.4395 31.3714 24.9644 32.9986 22.8505 32.9986C20.7367 32.9986 19.2615 31.3714 19.2615 29.0598C19.2615 26.7483 20.7367 25.1211 22.8505 25.1211C24.9644 25.1211 26.4395 26.7483 26.4395 29.0598ZM20.3413 29.0598C20.3413 30.8848 21.3298 32.0405 22.8505 32.0405C24.3713 32.0405 25.3598 30.8848 25.3598 29.0598C25.3598 27.2501 24.3713 26.1096 22.8505 26.1096C21.3298 26.1096 20.3413 27.2501 20.3413 29.0598ZM27.8806 25.2731H28.8082C28.9147 25.6533 28.9907 26.0335 29.0364 26.4137C29.6295 25.6685 30.5115 25.1363 31.5304 25.1363C33.1576 25.1363 34.2222 26.2464 34.2222 27.9193V32.877H33.1424V27.9193C33.1424 26.8547 32.4429 26.1096 31.4392 26.1096C30.0249 26.1096 29.0364 27.022 29.0364 28.3299V32.877H27.9566V27.4022C27.9566 26.3833 27.9414 25.8206 27.8806 25.2731ZM38.6528 25.1211C40.1279 25.1211 41.2381 25.9271 41.6183 27.1437L40.569 27.3262C40.3104 26.5658 39.6109 26.1096 38.6528 26.1096C37.6947 26.1096 37.0256 26.5658 37.0256 27.2045C37.0256 28.0561 37.9837 28.2538 39.0482 28.5276C40.3409 28.8621 41.7856 29.2727 41.7856 30.8391C41.7856 31.9797 40.7058 33.029 38.957 33.029C37.2841 33.029 36.0067 32.1014 35.5961 30.6871L36.6454 30.5046C36.9343 31.4779 37.8012 32.0405 38.957 32.0405C39.9911 32.0405 40.721 31.4931 40.721 30.8391C40.721 29.9419 39.7478 29.6986 38.668 29.44C37.3906 29.1207 35.9611 28.7709 35.9611 27.2045C35.9611 25.9879 37.0712 25.1211 38.6528 25.1211ZM49.5783 32.877H48.6506C48.5442 32.4968 48.4681 32.1166 48.4225 31.7364C47.8294 32.4816 46.9474 33.0138 45.9285 33.0138C44.3013 33.0138 43.2367 31.9037 43.2367 30.2308V25.2731H44.3165V30.2308C44.3165 31.2954 45.016 32.0405 46.0197 32.0405C47.434 32.0405 48.4225 31.1281 48.4225 29.8202V25.2731H49.5023V30.7479C49.5023 31.7668 49.5175 32.3295 49.5783 32.877ZM51.3324 32.877V22.2316H52.4121V32.877H51.3324ZM54.9884 30.8695V26.1704H53.787V25.4252L54.9884 25.2731L55.2926 23.3114H56.0681V25.2731H57.7714V26.1704H56.0681V30.8087C56.0681 31.4626 56.2354 32.0862 57.1631 32.0862C57.4064 32.0862 57.7106 32.0557 58.0756 31.9645V32.9226C57.7106 32.9986 57.376 33.029 57.0719 33.029C55.5359 33.029 54.9884 31.9645 54.9884 30.8695ZM59.4412 32.877V25.2731H60.5209V32.877H59.4412ZM59.3347 23.5395V22.11H60.6274V23.5395H59.3347ZM62.2759 25.2731H63.2036C63.3101 25.6533 63.3861 26.0335 63.4317 26.4137C64.0248 25.6685 64.9069 25.1363 65.9258 25.1363C67.553 25.1363 68.6175 26.2464 68.6175 27.9193V32.877H67.5378V27.9193C67.5378 26.8547 66.8382 26.1096 65.8345 26.1096C64.4202 26.1096 63.4317 27.022 63.4317 28.3299V32.877H62.352V27.4022C62.352 26.3833 62.3368 25.8206 62.2759 25.2731ZM75.9072 32.8465V31.8276C75.2989 32.6032 74.4017 33.029 73.398 33.029C71.4362 33.029 70.0675 31.4018 70.0675 29.0903C70.0675 26.7635 71.4362 25.1211 73.398 25.1211C74.4321 25.1211 75.3141 25.6685 75.9072 26.4137C75.9528 26.0791 76.0441 25.6077 76.1353 25.2731H77.063C77.0022 25.8206 76.987 26.3833 76.987 27.4022V32.8313C76.987 34.8844 75.816 36.2074 73.7325 36.2074C71.9836 36.2074 70.691 35.2798 70.2348 33.8654L71.2841 33.683C71.6339 34.6562 72.5007 35.2189 73.7325 35.2189C75.1468 35.2189 75.9072 34.2913 75.9072 32.8465ZM71.1472 29.0903C71.1472 30.9 72.0749 32.0405 73.6109 32.0405C75.086 32.0405 75.9072 30.7631 75.9072 29.364V28.8621C75.9072 27.387 75.0252 26.0791 73.6109 26.0791C72.0749 26.0791 71.1472 27.2501 71.1472 29.0903Z" fill="white"/>
</svg>
