<svg width="56" height="56" viewBox="0 0 56 56" fill="none" xmlns="http://www.w3.org/2000/svg">
<mask id="mask0_103_45" style="mask-type:luminance" maskUnits="userSpaceOnUse" x="0" y="0" width="56" height="56">
<path d="M55.4998 55.5V0.500164H0.5V55.5H55.4998Z" fill="white" stroke="white"/>
</mask>
<g mask="url(#mask0_103_45)">
<path d="M39.0911 55.1797L17.52 55.1591C16.4494 55.158 15.582 54.2898 15.582 53.2191V50.5511C15.582 49.4091 16.5634 48.5143 17.7005 48.6194L39.2716 50.614C40.2695 50.7063 41.0329 51.5434 41.0329 52.5456V53.2398C41.0329 54.3119 40.1632 55.1807 39.0911 55.1797Z" stroke="#ADD800" stroke-miterlimit="10" stroke-linecap="round" stroke-linejoin="round"/>
<path d="M17.7104 19.7262C16.59 19.7262 15.6817 18.818 15.6817 17.6975C15.6817 16.5771 16.59 15.6689 17.7104 15.6689C18.8309 15.6689 19.7391 16.5771 19.7391 17.6975C19.7391 18.818 18.8309 19.7262 17.7104 19.7262ZM23.7045 16.2413C22.7899 16.2413 22.3318 15.1356 22.9786 14.4888C23.4269 14.0405 23.4269 13.3136 22.9786 12.8653L22.5428 12.4294C22.0945 11.9811 21.3676 11.9811 20.9191 12.4294C20.2724 13.0761 19.1666 12.6181 19.1666 11.7035C19.1666 11.0694 18.6527 10.5555 18.0185 10.5555H17.4023C16.7683 10.5555 16.2542 11.0694 16.2542 11.7035C16.2542 12.6181 15.1484 13.0761 14.5017 12.4294C14.0534 11.9811 13.3265 11.9811 12.8781 12.4294L12.4423 12.8653C11.9939 13.3136 11.9939 14.0405 12.4423 14.4888C13.0891 15.1356 12.6311 16.2413 11.7164 16.2413C11.0823 16.2413 10.5684 16.7553 10.5684 17.3894V18.0058C10.5684 18.6397 11.0823 19.1538 11.7164 19.1538C12.6311 19.1538 13.0891 20.2595 12.4423 20.9064C11.9939 21.3547 11.9939 22.0815 12.4423 22.5298L12.8781 22.9657C13.3265 23.414 14.0534 23.414 14.5017 22.9657C15.1484 22.319 16.2542 22.777 16.2542 23.6916C16.2542 24.3256 16.7683 24.8396 17.4023 24.8396H18.0185C18.6527 24.8396 19.1666 24.3256 19.1666 23.6916C19.1666 22.777 20.2724 22.319 20.9191 22.9657C21.3676 23.414 22.0945 23.414 22.5428 22.9657L22.9786 22.5298C23.4269 22.0815 23.4269 21.3547 22.9786 20.9064C22.3318 20.2595 22.7899 19.1538 23.7045 19.1538C24.3385 19.1538 24.8525 18.6397 24.8525 18.0058V17.3894C24.8525 16.7553 24.3385 16.2413 23.7045 16.2413Z" stroke="#ADD800" stroke-miterlimit="10" stroke-linecap="round" stroke-linejoin="round"/>
<path d="M37.8803 50.4854V47.7713C37.8803 46.5156 38.995 45.5524 40.2373 45.7347L45.9685 46.5752C48.0321 46.878 49.8836 45.2784 49.8838 43.1926L49.884 36.5625C49.8841 35.2581 50.9482 34.2043 52.2525 34.2169C53.9874 34.2169 55.1293 32.408 54.3832 30.8418L51.9346 25.7016C51.7887 25.3953 51.711 25.061 51.7068 24.7218L51.66 20.9465C51.66 9.94278 42.8243 0.85878 31.8205 0.820609C28.1111 0.807812 24.6369 1.80979 21.6592 3.56449" stroke="#ADD800" stroke-miterlimit="10" stroke-linecap="round" stroke-linejoin="round"/>
<path d="M18.8984 45.2616V48.7302" stroke="#ADD800" stroke-miterlimit="10" stroke-linecap="round" stroke-linejoin="round"/>
<path d="M23.0096 31.7669C23.6112 29.2464 24.7968 26.8822 26.4863 24.8689C28.1556 22.8795 29.1609 20.3144 29.1609 17.5142C29.1609 11.1361 23.9461 5.97602 17.5474 6.06527C11.2701 6.15277 6.1951 11.3601 6.26138 17.6375C6.29015 20.3636 7.27168 22.861 8.88878 24.8129C10.5802 26.8547 11.789 29.2312 12.4036 31.7673" stroke="#ADD800" stroke-miterlimit="10" stroke-linecap="round" stroke-linejoin="round"/>
<path d="M22.9548 37.8245H12.4677C11.8885 37.8245 11.4189 37.3549 11.4189 36.7758V32.8129C11.4189 32.2337 11.8885 31.7642 12.4677 31.7642H22.9548C23.2329 31.7642 23.4997 31.8747 23.6963 32.0714C23.893 32.268 24.0035 32.5348 24.0035 32.8129V36.7758C24.0035 37.3549 23.5339 37.8245 22.9548 37.8245Z" stroke="#ADD800" stroke-miterlimit="10" stroke-linecap="round" stroke-linejoin="round"/>
<path d="M12.7412 37.8246V38.0716C12.7412 39.9231 14.2422 41.4241 16.0935 41.4241H19.5597C21.4112 41.4241 22.9121 39.9231 22.9121 38.0716V37.8246" stroke="#ADD800" stroke-miterlimit="10" stroke-linecap="round" stroke-linejoin="round"/>
</g>
</svg>
