<svg width="36" height="36" viewBox="0 0 36 36" fill="none" xmlns="http://www.w3.org/2000/svg">
<circle cx="18" cy="18" r="18" fill="#CCFF00"/>
<path d="M24.0793 19.2367C23.9988 19.1901 23.9074 19.1653 23.8144 19.1651C23.7213 19.1648 23.6298 19.1889 23.5491 19.2351L23.0858 19.4997L21.2036 16.2399L20.1411 14.3997C20.0706 14.2777 19.9546 14.1887 19.8185 14.1522C19.6824 14.1157 19.5374 14.1348 19.4154 14.2053L17.1151 15.5334L14.4546 10.9248C14.3841 10.8028 14.2681 10.7137 14.132 10.6773C13.9959 10.6408 13.8509 10.6599 13.7289 10.7304L11.8887 11.7929C11.7666 11.8633 11.6776 11.9793 11.6411 12.1154C11.6047 12.2515 11.6238 12.3965 11.6942 12.5185L14.6198 17.5867L15.6823 19.4274C15.7529 19.5495 15.8691 19.6386 16.0053 19.675C16.0727 19.6931 16.143 19.6977 16.2122 19.6886C16.2814 19.6794 16.3481 19.6568 16.4085 19.6219L18.7088 18.2938L20.3185 21.0812L19.8298 21.3601C19.7485 21.4066 19.681 21.4737 19.634 21.5547C19.5871 21.6357 19.5623 21.7276 19.5623 21.8213C19.5623 21.9149 19.5871 22.0068 19.634 22.0878C19.681 22.1688 19.7485 22.2359 19.8298 22.2824L23.5485 24.4074C23.6293 24.4537 23.7209 24.4779 23.814 24.4776C23.9071 24.4774 23.9985 24.4527 24.079 24.406C24.1596 24.3593 24.2264 24.2922 24.2729 24.2115C24.3194 24.1308 24.3438 24.0394 24.3438 23.9463V19.6963C24.3438 19.6032 24.3194 19.5118 24.273 19.4311C24.2265 19.3505 24.1597 19.2834 24.0793 19.2367Z" fill="black"/>
</svg>
