<svg width="36" height="36" viewBox="0 0 36 36" fill="none" xmlns="http://www.w3.org/2000/svg">
<circle cx="18" cy="18" r="18" fill="#CCFF00"/>
<path d="M14.8933 9.86237C14.8265 9.68706 14.8032 9.49817 14.8254 9.31189L7.6482 9.06656L7.5332 9.88652L15.3107 10.9568L14.8933 9.86237ZM19.4393 12.8999H17.094L12.655 25.2005C12.6253 25.2844 12.625 25.3758 12.6541 25.4599C12.6832 25.5439 12.74 25.6156 12.8152 25.6632L18.0604 28.9411C18.1222 28.9796 18.1936 29.0001 18.2665 29.0001C18.3393 29.0001 18.4107 28.9796 18.4725 28.9411L23.7181 25.6651C23.7933 25.6175 23.8502 25.5457 23.8793 25.4616C23.9084 25.3775 23.9081 25.2859 23.8784 25.202L19.4393 12.8999ZM28.8836 12.8271L28.9998 12.0087L21.5193 10.1782L20.927 11.7311L28.8836 12.8271ZM18.65 7.91654C18.65 7.81487 18.6096 7.71737 18.5377 7.64548C18.4658 7.57359 18.3683 7.5332 18.2667 7.5332C18.165 7.5332 18.0675 7.57359 17.9956 7.64548C17.9237 7.71737 17.8833 7.81487 17.8833 7.91654V8.29988H18.65V7.91654ZM16.4872 11.8891C16.5141 11.9603 16.5619 12.0217 16.6242 12.0652C16.6866 12.1088 16.7607 12.1325 16.8368 12.1333H19.6965C19.7726 12.1325 19.8467 12.1088 19.9091 12.0652C19.9715 12.0217 20.0192 11.9603 20.0461 11.8891L20.9236 9.58905C20.9467 9.53016 20.9548 9.46648 20.9474 9.40367C20.9399 9.34087 20.9169 9.28089 20.8807 9.22909C20.847 9.17882 20.8014 9.13767 20.7479 9.10931C20.6945 9.08095 20.6349 9.06626 20.5744 9.06656H15.959C15.8984 9.06619 15.8387 9.08085 15.7852 9.10922C15.7317 9.13758 15.686 9.17877 15.6523 9.22909C15.616 9.28089 15.5931 9.34087 15.5856 9.40367C15.5781 9.46648 15.5863 9.53016 15.6094 9.58905L16.4872 11.8891ZM14.2205 18.6044L14.896 16.7333H7.5332C7.53381 17.3431 7.77633 17.9278 8.20754 18.359C8.63875 18.7902 9.22341 19.0327 9.83323 19.0333H12.8999C13.3745 19.0342 13.837 18.8839 14.2205 18.6044ZM22.3301 18.65L23.1389 20.891C23.3012 20.9281 23.4669 20.9479 23.6334 20.95H26.7001C27.3101 20.95 27.8951 20.7077 28.3265 20.2764C28.7578 19.845 29.0001 19.26 29.0001 18.65H22.3301ZM11.0522 11.1481L7.71721 15.9666H8.64872L11.3666 12.0413L14.0845 15.9666H15.016L11.6809 11.1481C11.644 11.0998 11.5964 11.0607 11.5419 11.0338C11.4873 11.0069 11.4274 10.9929 11.3666 10.9929C11.3058 10.9929 11.2458 11.0069 11.1913 11.0338C11.1368 11.0607 11.0892 11.0998 11.0522 11.1481ZM24.8524 13.0648L21.87 17.3735L22.054 17.8833H22.4489L25.1668 13.9579L27.8846 17.8833H28.8161L25.4811 13.0648C25.4441 13.0165 25.3965 12.9774 25.342 12.9505C25.2875 12.9236 25.2275 12.9096 25.1668 12.9096C25.106 12.9096 25.046 12.9236 24.9915 12.9505C24.937 12.9774 24.8894 13.0165 24.8524 13.0648Z" fill="black"/>
</svg>
