<svg width="36" height="36" viewBox="0 0 36 36" fill="none" xmlns="http://www.w3.org/2000/svg">
<circle cx="18" cy="18" r="18" fill="#CCFF00"/>
<path d="M25.8876 16.7448L18.258 9.11136C18.2226 9.07595 18.1805 9.04788 18.1341 9.02877C18.0878 9.00966 18.0382 8.99988 17.9881 9C17.9379 9.00003 17.8882 9.00994 17.8419 9.02918C17.7956 9.04842 17.7535 9.0766 17.7181 9.11211L10.1114 16.7448C10.0023 16.8538 9.97025 17.0178 10.029 17.1604C10.0579 17.23 10.1069 17.2894 10.1696 17.3313C10.2323 17.3731 10.306 17.3954 10.3813 17.3953H14.5759V26.9285C14.5759 27.139 14.7468 27.3098 14.9573 27.3098H21.0585C21.269 27.3098 21.4398 27.139 21.4398 26.9285V17.3953H25.6184C25.7725 17.3953 25.9113 17.3022 25.9708 17.1596C26.0302 17.017 25.9967 16.8538 25.8876 16.7448Z" fill="url(#paint0_linear_393_11)"/>
<defs>
<linearGradient id="paint0_linear_393_11" x1="18" y1="10" x2="18" y2="19" gradientUnits="userSpaceOnUse">
<stop stop-opacity="0"/>
<stop offset="1"/>
</linearGradient>
</defs>
</svg>
