<svg width="36" height="36" viewBox="0 0 36 36" fill="none" xmlns="http://www.w3.org/2000/svg">
<circle cx="18" cy="18" r="18" fill="#CCFF00"/>
<g clip-path="url(#clip0_393_23)">
<path d="M17.3668 11.2198L15.832 8.3133C15.7821 8.21874 15.7073 8.13959 15.6157 8.08439C15.5241 8.02918 15.4192 8 15.3123 8H10.6936C10.5924 8.00002 10.4928 8.02621 10.4046 8.07603C10.3164 8.12585 10.2426 8.19761 10.1903 8.28436C10.1381 8.3711 10.1091 8.46988 10.1062 8.57112C10.1033 8.67236 10.1267 8.77263 10.1739 8.8622L13.3246 14.8288C14.1712 14.2132 15.1434 13.7604 16.1952 13.5178L17.3668 11.2198ZM25.3066 8H20.6879C20.5796 7.99999 20.4733 8.02995 20.3809 8.08656C20.2885 8.14318 20.2136 8.22424 20.1644 8.32078L17.6133 13.3243C17.7343 13.3188 17.8558 13.3156 17.9782 13.3156C19.7648 13.3156 21.4152 13.9098 22.7426 14.9106L25.8302 8.85467C25.8759 8.76507 25.8978 8.66525 25.8938 8.56476C25.8899 8.46427 25.8602 8.36646 25.8077 8.28071C25.7552 8.19496 25.6815 8.12412 25.5938 8.07497C25.506 8.02582 25.4071 8.00001 25.3066 8ZM17.9782 14.4911C14.2538 14.4911 11.2237 17.5211 11.2237 21.2456C11.2237 24.97 14.2538 28 17.9782 28C21.7026 28 24.7327 24.97 24.7327 21.2456C24.7327 17.5211 21.7026 14.4911 17.9782 14.4911ZM17.9782 25.7004C15.5555 25.7004 13.5844 23.7293 13.5844 21.3066C13.5844 18.8839 15.5555 16.9128 17.9782 16.9128C20.4009 16.9128 22.372 18.8839 22.372 21.3066C22.372 23.7293 20.4009 25.7004 17.9782 25.7004Z" fill="black"/>
<path d="M20.9558 22.5422C21.6366 20.9003 20.8574 19.0174 19.2155 18.3366C17.5736 17.6559 15.6907 18.435 15.01 20.0769C14.3292 21.7188 15.1084 23.6017 16.7502 24.2824C18.3921 24.9632 20.275 24.1841 20.9558 22.5422Z" fill="black"/>
</g>
<defs>
<clipPath id="clip0_393_23">
<rect width="20" height="20" fill="white" transform="translate(8 8)"/>
</clipPath>
</defs>
</svg>
