<svg width="36" height="36" viewBox="0 0 36 36" fill="none" xmlns="http://www.w3.org/2000/svg">
<circle cx="18" cy="18" r="18" fill="#CCFF00"/>
<path d="M24.6542 16.6066C22.5562 15.8645 21.2231 14.3542 20.7503 13.7402C20.5886 13.529 20.3699 13.3683 20.1199 13.2773C19.7528 13.1689 19.2318 12.8931 18.8394 12.9292C15.9347 12.9709 14.9999 13.8397 13.156 16.1666C12.9261 16.4621 12.9261 16.8594 13.133 17.1483L11.9641 16.4785C11.7606 16.3603 11.4979 16.4293 11.3797 16.6328L10.0565 18.9148C9.93831 19.1118 10.0125 19.3876 10.2141 19.4959L13.33 21.2886C13.5306 21.4012 13.7962 21.3388 13.9144 21.131L15.2376 18.8491C15.3571 18.6554 15.2806 18.3802 15.08 18.2679L13.7371 17.4964C14.0162 17.5282 14.3019 17.4031 14.4726 17.1812C15.7826 15.464 16.8793 15.0667 17.1485 14.9912L15.9534 19.6765L14.2756 22.8909L11.9904 24.0597C11.0113 24.587 11.6801 26.0514 12.7259 25.6554L15.3295 24.6048C15.625 24.4866 15.8779 24.2699 16.0453 24.0006L17.7461 21.2492L20.0969 23.692V26.2924C20.1357 27.5867 22.0292 27.5916 22.0702 26.2924V23.5869C22.0702 23.2159 21.9389 22.8548 21.7025 22.5691L19.762 20.2511L20.8554 16.4555C21.8564 17.2036 22.9859 17.7622 24.188 18.1038C24.3948 18.1596 24.6082 18.1333 24.7921 18.0283C25.371 17.7213 25.2961 16.8069 24.6542 16.6066ZM20.7405 12.8475C21.8115 12.8475 22.6809 11.9813 22.6809 10.9166C22.5906 8.36082 18.89 8.36147 18.8 10.9166C18.8 11.9813 19.6694 12.8475 20.7405 12.8475Z" fill="black"/>
</svg>
