<svg width="36" height="36" viewBox="0 0 36 36" fill="none" xmlns="http://www.w3.org/2000/svg">
<circle cx="18" cy="18" r="18" fill="#CCFF00"/>
<g clip-path="url(#clip0_184_58)">
<path fill-rule="evenodd" clip-rule="evenodd" d="M18.4633 12.3191C18.4633 9.82901 20.4942 7.7981 22.9842 7.7981C25.4742 7.7981 27.5052 9.82901 27.5052 12.3191C27.5052 14.8091 25.4743 16.84 22.9842 16.84C20.4941 16.84 18.4633 14.8091 18.4633 12.3191ZM8.55075 26.0117C8.98507 26.2625 9.54384 26.1128 9.79456 25.6785L12.434 21.1069C12.5793 20.8551 12.8289 20.711 13.1197 20.711H15.0109C15.2834 20.711 15.5139 20.8879 15.5845 21.1512L16.1627 23.3092C16.2925 23.7936 16.7935 24.0828 17.2779 23.953C17.7623 23.8232 18.0515 23.3223 17.9217 22.8378L17.2244 20.2355C16.9999 19.3975 16.9003 19.1291 15.9525 18.89L15.1253 18.6813C14.7786 18.5938 14.4967 18.4636 14.5337 18.0362L14.6565 16.6183L14.7286 15.7856C14.7725 15.2784 15.1126 14.8727 15.6045 14.7409L17.7871 14.1561C18.7507 13.8979 18.4191 12.5 17.3874 12.7764L12.814 14.0019C11.9944 14.2215 11.4275 14.8977 11.3543 15.7431L11.1137 18.52C11.0369 19.4075 10.8073 20.1528 10.3713 20.9296L8.21735 24.768C7.97191 25.2053 8.11633 25.761 8.55062 26.0118L8.55075 26.0117ZM13.905 13.1906C14.6485 12.9914 15.0898 12.2271 14.8906 11.4835C14.6913 10.74 13.927 10.2987 13.1835 10.4979C12.4399 10.6972 11.9986 11.4614 12.1978 12.205C12.3971 12.9486 13.1614 13.3899 13.905 13.1906ZM28.6576 14.8276C28.3668 14.5367 27.8909 14.5368 27.6001 14.8276L15.7212 26.7065H7.87279C7.46149 26.7065 7.125 27.043 7.125 27.4543C7.125 27.8656 7.46149 28.2021 7.87279 28.2021H16.3407L28.6577 15.8851C28.9485 15.5943 28.9484 15.1184 28.6576 14.8276Z" fill="black"/>
</g>
<defs>
<clipPath id="clip0_184_58">
<rect width="22" height="22" fill="white" transform="translate(7 7)"/>
</clipPath>
</defs>
</svg>
