<svg width="36" height="36" viewBox="0 0 36 36" fill="none" xmlns="http://www.w3.org/2000/svg">
<circle cx="18" cy="18" r="18" fill="#CCFF00"/>
<path fill-rule="evenodd" clip-rule="evenodd" d="M12.7708 17.3451H17.4655V26.064H12.7708V17.3451ZM7.20673 16.4582L9.11887 15.4406L8.09377 15.1595C7.98818 15.1284 7.89903 15.0571 7.84549 14.9609C7.79195 14.8648 7.7783 14.7514 7.80749 14.6453C7.83667 14.5392 7.90635 14.4488 8.00154 14.3935C8.09672 14.3382 8.2098 14.3225 8.31643 14.3498L10.2858 14.8904C10.393 14.9197 10.4842 14.9905 10.5393 15.087C10.5944 15.1836 10.6089 15.2981 10.5796 15.4054L10.0397 17.3755C10.0154 17.4642 9.96269 17.5425 9.88962 17.5983C9.81656 17.6542 9.72719 17.6845 9.63523 17.6846C9.59759 17.6847 9.56012 17.6796 9.52388 17.6694C9.41662 17.6398 9.32546 17.5689 9.27037 17.4723C9.21528 17.3756 9.20076 17.261 9.22999 17.1537L9.49345 16.1942L7.63263 17.1814C7.56839 17.2199 7.49487 17.2401 7.42 17.2399C7.32789 17.2399 7.23834 17.2096 7.16514 17.1537C7.09194 17.0978 7.03915 17.0194 7.01491 16.9305C6.99066 16.8416 6.9963 16.7473 7.03095 16.6619C7.06561 16.5766 7.12739 16.505 7.20673 16.4582ZM18.6236 11.5467C18.5977 11.4675 18.5489 11.3978 18.4832 11.3465C18.4176 11.2951 18.3382 11.2645 18.2551 11.2585L16.2625 11.1111L15.5066 9.2611C15.4752 9.18391 15.4214 9.11785 15.3522 9.07134C15.283 9.02484 15.2016 9 15.1182 9C15.0348 9 14.9534 9.02484 14.8842 9.07134C14.815 9.11785 14.7612 9.18391 14.7298 9.2611L13.9738 11.1111L11.9812 11.2585C11.8981 11.2645 11.8186 11.2951 11.753 11.3465C11.6874 11.3978 11.6385 11.4676 11.6127 11.5469C11.587 11.6261 11.5854 11.7113 11.6082 11.7914C11.631 11.8716 11.6773 11.9431 11.7409 11.9969L13.2666 13.2879L12.7909 15.2284C12.7757 15.2902 12.7747 15.3546 12.7881 15.4169C12.8015 15.4791 12.8289 15.5375 12.8681 15.5876C12.9074 15.6377 12.9576 15.6782 13.0148 15.706C13.072 15.7339 13.1349 15.7483 13.1985 15.7483C13.2767 15.7484 13.3533 15.7264 13.4195 15.685L15.1182 14.6325L16.8169 15.6848C16.8877 15.7288 16.97 15.7507 17.0534 15.7477C17.1367 15.7447 17.2173 15.7169 17.2847 15.6679C17.3522 15.6189 17.4035 15.5509 17.4322 15.4726C17.4608 15.3943 17.4655 15.3092 17.4455 15.2282L16.9698 13.2877L18.4955 11.9969C18.5589 11.943 18.605 11.8714 18.6278 11.7913C18.6506 11.7113 18.6491 11.626 18.6236 11.5467ZM7.23676 19.686V26.064H11.9315V19.686H7.23676Z" fill="black"/>
<rect x="18.3052" y="17.332" width="4.69928" height="8.73199" fill="black"/>
<rect x="23.8379" y="17.332" width="4.69928" height="8.73199" fill="black"/>
</svg>
