<svg width="36" height="36" viewBox="0 0 36 36" fill="none" xmlns="http://www.w3.org/2000/svg">
<circle cx="18" cy="18" r="18" fill="#CCFF00"/>
<path d="M29.1429 14.5714H27.4286V12C27.4286 11.7726 27.3383 11.5546 27.1775 11.3939C27.0168 11.2331 26.7988 11.1428 26.5714 11.1428H6.85714C6.62981 11.1428 6.4118 11.2331 6.25105 11.3939C6.09031 11.5546 6 11.7726 6 12V24C6 24.2273 6.09031 24.4453 6.25105 24.6061C6.4118 24.7668 6.62981 24.8571 6.85714 24.8571H26.5714C26.7988 24.8571 27.0168 24.7668 27.1775 24.6061C27.3383 24.4453 27.4286 24.2273 27.4286 24V21.4285H29.1429C29.3702 21.4285 29.5882 21.3382 29.7489 21.1775C29.9097 21.0167 30 20.7987 30 20.5714V15.4285C30 15.2012 29.9097 14.9832 29.7489 14.8224C29.5882 14.6617 29.3702 14.5714 29.1429 14.5714ZM25.7143 23.1428H7.71429V12.8571H25.7143V23.1428ZM13.92 22.2857C13.8517 22.2939 13.7826 22.2939 13.7143 22.2857H9.42857C9.20124 22.2857 8.98323 22.1954 8.82248 22.0346C8.66173 21.8739 8.57143 21.6559 8.57143 21.4285V14.5714C8.57143 14.3441 8.66173 14.126 8.82248 13.9653C8.98323 13.8046 9.20124 13.7143 9.42857 13.7143H12C12.1958 13.7085 12.3876 13.7701 12.5436 13.8886C12.6996 14.0071 12.8102 14.1755 12.8571 14.3657L13.0971 15.4285L14.3829 20.5714L14.5457 21.2228C14.5765 21.3337 14.5847 21.4497 14.5697 21.5638C14.5547 21.678 14.5169 21.7879 14.4585 21.8871C14.4001 21.9863 14.3223 22.0727 14.2298 22.1412C14.1373 22.2097 14.0319 22.2588 13.92 22.2857Z" fill="black"/>
</svg>
