<svg width="36" height="36" viewBox="0 0 36 36" fill="none" xmlns="http://www.w3.org/2000/svg">
<circle cx="18" cy="18" r="18" fill="#CCFF00"/>
<path d="M26.7241 25.1933L22.6436 21.1127C23.626 19.8049 24.1563 18.213 24.1545 16.5773C24.1545 12.3992 20.7553 9 16.5773 9C12.3992 9 9 12.3992 9 16.5773C9 20.7554 12.3992 24.1546 16.5773 24.1546C18.213 24.1564 19.8049 23.626 21.1127 22.6436L25.1932 26.7242C25.3997 26.9088 25.6691 27.0073 25.9461 26.9996C26.223 26.9918 26.4865 26.8784 26.6824 26.6825C26.8783 26.4866 26.9918 26.2231 26.9996 25.9462C27.0073 25.6692 26.9087 25.3998 26.7241 25.1933ZM11.1649 16.5773C11.1649 15.5068 11.4824 14.4604 12.0771 13.5704C12.6718 12.6803 13.5171 11.9866 14.5061 11.5769C15.495 11.1673 16.5833 11.0601 17.6332 11.2689C18.683 11.4778 19.6474 11.9933 20.4044 12.7502C21.1613 13.5071 21.6768 14.4715 21.8856 15.5214C22.0944 16.5713 21.9872 17.6595 21.5776 18.6485C21.168 19.6375 20.4742 20.4828 19.5842 21.0775C18.6941 21.6722 17.6477 21.9896 16.5773 21.9896C15.1424 21.9879 13.7667 21.4171 12.7521 20.4025C11.7375 19.3878 11.1667 18.0122 11.1649 16.5773Z" fill="black"/>
<g clip-path="url(#clip0_184_55)">
<path d="M17.5862 16.5L18.7742 15.312C19.0826 15.0036 19.0667 14.4855 18.7422 14.1951C18.4386 13.9236 17.9656 13.947 17.6654 14.2476L16.4997 15.4134L15.334 14.2476C15.0331 13.947 14.5606 13.9236 14.257 14.195C13.9329 14.4853 13.9176 15.0047 14.2251 15.312L15.4131 16.5L14.2251 17.688C13.9244 17.9887 13.9373 18.5123 14.25 18.7983C14.5484 19.0717 15.0378 19.0486 15.34 18.7462L16.4997 17.5866L17.6594 18.7462C17.9573 19.0445 18.4637 19.0775 18.7725 18.7762C19.0731 18.4828 19.0692 17.983 18.774 17.688L17.5862 16.5Z" fill="black"/>
</g>
<defs>
<clipPath id="clip0_184_55">
<rect width="5" height="5" fill="white" transform="translate(14 14)"/>
</clipPath>
</defs>
</svg>
