<svg width="36" height="36" viewBox="0 0 36 36" fill="none" xmlns="http://www.w3.org/2000/svg">
<circle cx="18" cy="18" r="18" fill="#CCFF00"/>
<g clip-path="url(#clip0_240_149)">
<path d="M16.0423 13.6629C16.0893 14.3396 16.8625 14.7102 17.4214 14.3257C17.913 13.9873 18.5841 14.3398 18.5841 14.9371V17.3945H20.425C20.0981 16.0595 21.1566 14.7588 22.5647 14.856C23.8036 14.9419 24.7224 16.1348 24.413 17.3945H26.2726C27.8286 15.0419 26.2615 11.6382 23.2293 11.4825C23.5722 9.67187 22.1761 8.00293 20.3466 8.00293C19.6857 8.00293 19.0751 8.22262 18.5841 8.5927V12.2604C18.5841 12.8573 17.9135 13.2104 17.4213 12.8718C16.8233 12.4604 15.9905 12.9148 16.0423 13.6629Z" fill="black"/>
<path d="M12.239 17.3947C12.8359 17.3947 13.189 18.0654 12.8502 18.5575C12.4407 19.1525 12.8904 19.9879 13.6416 19.936C14.3199 19.889 14.6886 19.1152 14.3047 18.5574C13.9661 18.0655 14.3189 17.3947 14.9161 17.3947H17.413V15.5921C16.1504 15.9023 14.9598 14.9801 14.8741 13.7441C14.7768 12.3419 16.0721 11.2763 17.413 11.6046V8.59285C15.3109 7.00863 12.2995 8.81753 12.7607 11.4438C9.71048 11.6059 8.16684 15.017 9.73634 17.3947H12.239ZM26.2534 18.5662H23.7585C23.1612 18.5662 22.8086 17.8953 23.1471 17.4035C23.5314 16.8454 23.1617 16.0719 22.4841 16.0249C21.7329 15.9727 21.2831 16.8081 21.6927 17.4034C22.0313 17.8955 21.6786 18.5662 21.0814 18.5662H18.5845V20.3677C19.9216 20.0403 21.2209 21.1016 21.1234 22.5071C21.0376 23.7436 19.8467 24.6651 18.5845 24.3552V27.4072C20.6866 28.9914 23.698 27.1825 23.2367 24.5562C26.2137 24.398 27.8684 21.0582 26.2534 18.5662Z" fill="black"/>
<path d="M19.9543 22.426C20.0062 21.6782 19.1734 21.2233 18.5754 21.6349C18.0835 21.9732 17.4126 21.6209 17.4126 21.0235V18.5662H15.5706C15.8895 19.8638 14.9011 21.1098 13.5746 21.1098C12.2355 21.1098 11.2686 19.8481 11.5827 18.5662H9.73617C8.16754 20.9435 9.70817 24.3603 12.7674 24.5174C12.4245 26.328 13.8206 27.9969 15.6502 27.9969C16.3111 27.9969 16.9216 27.7772 17.4127 27.4071V23.7003C17.4127 23.1035 18.0833 22.7503 18.5753 23.0889C19.133 23.4728 19.9073 23.1041 19.9543 22.426Z" fill="black"/>
</g>
<defs>
<clipPath id="clip0_240_149">
<rect width="20" height="20" fill="white" transform="translate(8 8)"/>
</clipPath>
</defs>
</svg>
