<svg width="36" height="36" viewBox="0 0 36 36" fill="none" xmlns="http://www.w3.org/2000/svg">
<circle cx="18" cy="18" r="18" fill="#CCFF00"/>
<path d="M23.9815 25.6562H10.7002C10.3766 25.6562 10.1143 25.9186 10.1143 26.2422V27.4141C10.1143 27.7377 10.3766 28 10.7002 28H23.9815C24.3051 28 24.5674 27.7377 24.5674 27.4141V26.2422C24.5674 25.9186 24.3051 25.6562 23.9815 25.6562ZM11.6768 23.3125V24.4844H23.0049V23.3125C23.0049 22.9889 22.7426 22.7266 22.419 22.7266H12.2627C11.9391 22.7266 11.6768 22.9889 11.6768 23.3125ZM10.4694 18.9683L11.465 19.395C11.2885 17.117 11.6699 15.0266 12.576 13.3284C13.5235 11.5526 15.0008 10.205 16.9817 9.30469C16.8685 9.31102 16.7555 9.31941 16.6432 9.33086C15.4961 9.44785 14.4594 9.82848 13.5617 10.4621C12.5671 11.1643 11.7706 12.1615 11.1946 13.4261C10.5753 14.7856 10.2121 16.4592 10.115 18.4005C10.109 18.52 10.1398 18.6384 10.2032 18.7399C10.2665 18.8414 10.3594 18.9211 10.4694 18.9683Z" fill="black"/>
<path d="M25.5296 14.808L22.1935 11.1383L21.8278 8.5053C21.8126 8.39613 21.767 8.29345 21.6961 8.20906C21.6252 8.12467 21.5319 8.06198 21.427 8.0282C21.3221 7.99442 21.2098 7.99091 21.103 8.01809C20.9962 8.04526 20.8992 8.10202 20.8232 8.18183L19.3765 9.7007C16.6464 10.4189 14.707 11.8244 13.6103 13.8799C12.7623 15.4691 12.436 17.471 12.6667 19.6694C12.7337 20.3043 12.8425 20.9341 12.9926 21.5546H21.4427V20.3827C21.4427 20.2606 21.4046 20.1415 21.3336 20.0421L19.9351 18.0842C19.8461 17.9603 19.7991 17.8113 19.8008 17.6588C19.8026 17.5063 19.8531 17.3584 19.9449 17.2366C20.1392 16.9776 20.4849 16.8807 20.7855 17.0009L23.226 17.9771C23.7893 18.2025 24.4225 18.0355 24.8014 17.5618L25.5855 16.5817C26.0076 16.054 25.9841 15.308 25.5296 14.808Z" fill="black"/>
</svg>
