<svg width="30" height="30" viewBox="0 0 30 30" fill="none" xmlns="http://www.w3.org/2000/svg">
<path d="M15.0167 6.13314H14.9886C12.7189 6.13314 10.5823 7.01814 8.97171 8.62595C8.1744 9.41722 7.54216 10.3589 7.11167 11.3965C6.68117 12.434 6.46099 13.5467 6.4639 14.67C6.4639 16.8656 7.29827 18.9478 8.81327 20.5331C9.57264 21.3281 9.99077 22.3106 9.99077 23.2997V24.0197C9.99077 25.0022 10.7905 25.8009 11.772 25.8009H18.2305C19.213 25.8009 20.0117 25.0022 20.0117 24.0197V23.2997C20.0117 22.3097 20.4298 21.3272 21.1892 20.5322C22.7008 18.9554 23.5428 16.8543 23.5386 14.67C23.5415 13.5467 23.3213 12.434 22.8908 11.3965C22.4603 10.3589 21.8281 9.41722 21.0308 8.62595C20.2427 7.83381 19.3054 7.20567 18.2732 6.77781C17.2409 6.34995 16.1341 6.13084 15.0167 6.13314ZM19.9695 19.3659C18.9083 20.4769 18.3233 21.8728 18.3233 23.2988V24.0188C18.3233 24.0311 18.3208 24.0433 18.3161 24.0546C18.3114 24.066 18.3045 24.0763 18.2958 24.0851C18.2871 24.0938 18.2768 24.1007 18.2654 24.1054C18.254 24.1101 18.2418 24.1125 18.2295 24.1125H11.7711C11.7588 24.1125 11.7466 24.1101 11.7352 24.1054C11.7238 24.1007 11.7135 24.0938 11.7048 24.0851C11.6961 24.0763 11.6892 24.066 11.6845 24.0546C11.6798 24.0433 11.6773 24.0311 11.6773 24.0188V23.2988C11.6773 21.8728 11.0923 20.4759 10.0311 19.3659C8.82065 18.1023 8.14665 16.4189 8.15046 14.6691C8.15046 12.8372 8.86483 11.115 10.1623 9.81939C10.795 9.18378 11.5473 8.67981 12.3759 8.33658C13.2044 7.99336 14.0927 7.81768 14.9895 7.8197H15.012C16.8317 7.8197 18.5455 8.52939 19.8364 9.81939C20.4761 10.4543 20.9833 11.21 21.3286 12.0425C21.674 12.875 21.8506 13.7678 21.8483 14.6691C21.8539 16.4189 21.1804 18.1027 19.9695 19.3659Z" fill="#CCFF00"/>
<path d="M13.8379 10.0228C12.9919 10.2324 12.2196 10.6699 11.6049 11.2878C10.9902 11.9056 10.5566 12.6802 10.3513 13.5272C10.3218 13.6359 10.3143 13.7494 10.3293 13.861C10.3443 13.9727 10.3815 14.0802 10.4388 14.1772C10.496 14.2742 10.5721 14.3588 10.6625 14.4259C10.7529 14.4931 10.8559 14.5415 10.9653 14.5682C11.0747 14.5949 11.1884 14.5995 11.2996 14.5816C11.4108 14.5637 11.5173 14.5237 11.6128 14.464C11.7083 14.4043 11.7909 14.326 11.8557 14.2339C11.9205 14.1418 11.9662 14.0376 11.9901 13.9275C12.1267 13.3814 12.4085 12.8824 12.8056 12.4833C13.2027 12.0843 13.7003 11.8 14.2457 11.6606C14.4629 11.6065 14.6497 11.4684 14.765 11.2766C14.8804 11.0848 14.9148 10.855 14.8607 10.6378C14.8066 10.4206 14.6685 10.2338 14.4767 10.1185C14.2849 10.0031 14.0551 9.96873 13.8379 10.0228ZM17.302 27.2812H12.6988C12.4751 27.2812 12.2604 27.3701 12.1022 27.5284C11.944 27.6866 11.8551 27.9012 11.8551 28.125C11.8551 28.3488 11.944 28.5634 12.1022 28.7216C12.2604 28.8799 12.4751 28.9687 12.6988 28.9687H17.302C17.5257 28.9687 17.7403 28.8799 17.8986 28.7216C18.0568 28.5634 18.1457 28.3488 18.1457 28.125C18.1457 27.9012 18.0568 27.6866 17.8986 27.5284C17.7403 27.3701 17.5257 27.2812 17.302 27.2812ZM15.0004 4.37063C15.2242 4.37063 15.4388 4.28173 15.597 4.1235C15.7552 3.96526 15.8441 3.75065 15.8441 3.52688V1.875C15.8441 1.65122 15.7552 1.43661 15.597 1.27838C15.4388 1.12014 15.2242 1.03125 15.0004 1.03125C14.7766 1.03125 14.562 1.12014 14.4038 1.27838C14.2455 1.43661 14.1566 1.65122 14.1566 1.875V3.52688C14.1566 3.75065 14.2455 3.96526 14.4038 4.1235C14.562 4.28173 14.7766 4.37063 15.0004 4.37063ZM27.0145 12.1022H25.3626C25.1388 12.1022 24.9242 12.1911 24.766 12.3493C24.6077 12.5075 24.5188 12.7222 24.5188 12.9459C24.5188 13.1697 24.6077 13.3843 24.766 13.5426C24.9242 13.7008 25.1388 13.7897 25.3626 13.7897H27.0145C27.2382 13.7897 27.4528 13.7008 27.6111 13.5426C27.7693 13.3843 27.8582 13.1697 27.8582 12.9459C27.8582 12.7222 27.7693 12.5075 27.6111 12.3493C27.4528 12.1911 27.2382 12.1022 27.0145 12.1022ZM4.63727 12.1022H2.98633C2.76255 12.1022 2.54794 12.1911 2.38971 12.3493C2.23147 12.5075 2.14258 12.7222 2.14258 12.9459C2.14258 13.1697 2.23147 13.3843 2.38971 13.5426C2.54794 13.7008 2.76255 13.7897 2.98633 13.7897H4.6382C4.86198 13.7896 5.07654 13.7005 5.23469 13.5422C5.39283 13.3839 5.48161 13.1692 5.48148 12.9455C5.48136 12.7217 5.39235 12.5071 5.23402 12.349C5.0757 12.1908 4.86104 12.1021 4.63727 12.1022ZM7.7432 6.88219C7.82138 6.96104 7.91441 7.02364 8.01691 7.06635C8.1194 7.10907 8.22935 7.13106 8.34039 7.13106C8.45143 7.13106 8.56138 7.10907 8.66388 7.06635C8.76637 7.02364 8.8594 6.96104 8.93758 6.88219C9.01604 6.80398 9.07829 6.71105 9.12077 6.60873C9.16325 6.50642 9.18511 6.39672 9.18511 6.28594C9.18511 6.17515 9.16325 6.06546 9.12077 5.96314C9.07829 5.86083 9.01604 5.7679 8.93758 5.68969L7.76852 4.52062C7.69084 4.43949 7.59775 4.37467 7.4947 4.32999C7.39164 4.2853 7.28071 4.26164 7.16839 4.26039C7.05607 4.25914 6.94464 4.28033 6.84062 4.32272C6.7366 4.36511 6.64209 4.42784 6.56263 4.50723C6.48318 4.58663 6.42037 4.68109 6.3779 4.78507C6.33544 4.88906 6.31416 5.00048 6.31531 5.1128C6.31647 5.22511 6.34005 5.33607 6.38465 5.43916C6.42926 5.54224 6.494 5.63539 6.57508 5.71312L7.7432 6.88219ZM22.2323 4.52062L21.0641 5.68875C20.9453 5.80645 20.8642 5.95688 20.8312 6.12085C20.7983 6.28482 20.8149 6.4549 20.8789 6.60939C20.943 6.76389 21.0516 6.8958 21.191 6.9883C21.3303 7.0808 21.4941 7.12969 21.6613 7.12875C21.7723 7.12893 21.8822 7.10715 21.9847 7.06468C22.0871 7.0222 22.1802 6.95986 22.2585 6.88125L23.4266 5.71312C23.7566 5.38406 23.7566 4.84969 23.4266 4.52062C23.0966 4.19156 22.5613 4.19156 22.2323 4.52062Z" fill="#CCFF00"/>
</svg>
