<svg width="30" height="30" viewBox="0 0 30 30" fill="none" xmlns="http://www.w3.org/2000/svg">
<path fill-rule="evenodd" clip-rule="evenodd" d="M12.9439 6.2453C12.4288 6.95867 4.82214 19.6272 4.16808 20.5307C3.88761 20.9191 3.71987 21.3774 3.68335 21.855C3.64683 22.3327 3.74296 22.8112 3.96113 23.2377C4.1793 23.6642 4.51104 24.0222 4.91975 24.2721C5.32846 24.5221 5.79826 24.6542 6.27733 24.6541H23.8298C24.3086 24.6537 24.778 24.5211 25.1864 24.2711C25.5947 24.021 25.9262 23.6631 26.1442 23.2368C26.3623 22.8105 26.4585 22.3323 26.4223 21.8549C26.3861 21.3774 26.2189 20.9192 25.939 20.5307C25.7513 20.2731 17.2753 6.4013 17.1632 6.2453C16.9221 5.91123 16.6052 5.63919 16.2384 5.45157C15.8716 5.26394 15.4655 5.16611 15.0535 5.16611C14.6416 5.16611 14.2355 5.26394 13.8687 5.45157C13.5019 5.63919 13.185 5.91123 12.9439 6.2453ZM14.2626 7.19592C14.3529 7.07043 14.4718 6.96822 14.6094 6.89771C14.7469 6.82721 14.8993 6.79044 15.054 6.79044C15.2086 6.79044 15.361 6.82721 15.4986 6.89771C15.6362 6.96822 15.755 7.07043 15.8453 7.19592C15.9558 7.3503 24.4351 21.2237 24.6211 21.4821C24.8348 21.7787 24.8649 22.1719 24.6991 22.4977C24.5318 22.8235 24.1954 23.0299 23.8298 23.0299H6.27733C5.9117 23.0299 5.57533 22.8235 5.40795 22.4985C5.32654 22.3383 5.29075 22.1587 5.3045 21.9794C5.31826 21.8001 5.38103 21.6281 5.48595 21.4821C6.1392 20.5778 13.7466 7.90849 14.2626 7.19592Z" fill="#CCFF00"/>
<path fill-rule="evenodd" clip-rule="evenodd" d="M14 9.75V17.25C14 17.4489 14.1054 17.6397 14.2929 17.7803C14.4804 17.921 14.7348 18 15 18C15.2652 18 15.5196 17.921 15.7071 17.7803C15.8946 17.6397 16 17.4489 16 17.25V9.75C16 9.55109 15.8946 9.36032 15.7071 9.21967C15.5196 9.07902 15.2652 9 15 9C14.7348 9 14.4804 9.07902 14.2929 9.21967C14.1054 9.36032 14 9.55109 14 9.75Z" fill="#CCFF00"/>
<path d="M15 21C15.5523 21 16 20.5523 16 20C16 19.4477 15.5523 19 15 19C14.4477 19 14 19.4477 14 20C14 20.5523 14.4477 21 15 21Z" fill="#CCFF00"/>
</svg>
