<svg width="30" height="30" viewBox="0 0 30 30" fill="none" xmlns="http://www.w3.org/2000/svg">
<g clip-path="url(#clip0_2068_5)">
<path d="M26 15.043C26 17.2142 25.3555 19.3258 24.1362 21.1494C23.9706 21.3973 23.6983 21.5312 23.421 21.5312C23.2569 21.5312 23.0909 21.4844 22.9442 21.3862C22.5496 21.1225 22.4436 20.5888 22.7073 20.1942C23.7371 18.6542 24.2812 16.873 24.2812 15.043C24.2812 14.2566 24.1829 13.4756 23.9888 12.722C23.8705 12.2624 24.1473 11.7938 24.6069 11.6755C25.0668 11.5573 25.5351 11.8339 25.6534 12.2935C25.8833 13.1871 26 14.1121 26 15.043ZM19.8011 22.9877C18.3576 23.862 16.6974 24.3242 15 24.3242C9.88234 24.3242 5.71875 20.1606 5.71875 15.043C5.71875 9.9253 9.88234 5.76172 15 5.76172C16.8948 5.76172 18.7168 6.32869 20.2692 7.40141C20.6596 7.67116 21.1949 7.57328 21.4648 7.18287C21.7345 6.79245 21.6368 6.25719 21.2462 5.9873C19.4053 4.71534 17.2454 4.04297 15 4.04297C12.0618 4.04297 9.29942 5.18718 7.2218 7.26477C5.14426 9.34239 4 12.1048 4 15.043C4 17.9811 5.14421 20.7435 7.2218 22.8212C9.29942 24.8987 12.0618 26.043 15 26.043C17.0115 26.043 18.9796 25.4948 20.6916 24.4576C21.0977 24.2118 21.2275 23.6833 20.9816 23.2774C20.7355 22.8713 20.2071 22.7418 19.8011 22.9877ZM15.0829 17.5348C14.9468 17.5402 14.8197 17.4918 14.721 17.3979L10.2202 13.1303C9.8758 12.8037 9.33182 12.8182 9.00534 13.1626C8.67874 13.507 8.69318 14.051 9.03757 14.3775L13.5376 18.6443C13.9532 19.0394 14.4907 19.2539 15.0604 19.2539C15.091 19.2539 15.1215 19.2532 15.1521 19.2521C15.7555 19.2277 16.3097 18.9666 16.7125 18.5166C16.7228 18.5053 16.7325 18.4937 16.7421 18.4818L25.8103 7.2025C26.1078 6.83254 26.049 6.29161 25.6791 5.99435C25.3093 5.69692 24.7682 5.75566 24.4708 6.12562L15.4202 17.3829C15.3319 17.4756 15.2108 17.5301 15.0829 17.5348H15.0829Z" fill="#CCFF00"/>
</g>
<defs>
<clipPath id="clip0_2068_5">
<rect width="22" height="22" fill="white" transform="translate(4 4)"/>
</clipPath>
</defs>
</svg>
